# 3ds Max Wavefront OBJ Exporter v0.97b - (c)2007 guruware
# 创建的文件:03.04.2018 10:40:49

mtllib button2.mtl

#
# object button2
#

v  3.5726 2.2919 0.8661
v  3.6042 2.2937 0.8416
v  3.6111 2.2900 0.8552
v  3.5926 2.2970 0.8318
v  3.5779 2.2996 0.8272
v  3.5624 2.3011 0.8285
v  3.5485 2.3011 0.8355
v  3.5382 2.2997 0.8472
v  3.5332 2.2972 0.8618
v  3.5342 2.2938 0.8770
v  3.5410 2.2902 0.8905
v  3.5527 2.2868 0.9004
v  3.5673 2.2842 0.9050
v  3.5828 2.2828 0.9037
v  3.5968 2.2828 0.8966
v  3.6070 2.2841 0.8850
v  3.6120 2.2867 0.8704
v  3.6057 2.3066 0.8444
v  3.6125 2.3030 0.8580
v  3.5940 2.3100 0.8346
v  3.5793 2.3126 0.8300
v  3.5639 2.3140 0.8313
v  3.5499 2.3140 0.8383
v  3.5397 2.3127 0.8500
v  3.5346 2.3101 0.8645
v  3.5356 2.3068 0.8797
v  3.5424 2.3031 0.8933
v  3.5541 2.2998 0.9031
v  3.5688 2.2972 0.9077
v  3.5842 2.2958 0.9064
v  3.5982 2.2957 0.8994
v  3.6084 2.2971 0.8877
v  3.6135 2.2997 0.8732
v  3.6071 2.3196 0.8472
v  3.6139 2.3160 0.8607
v  3.5954 2.3230 0.8373
v  3.5808 2.3256 0.8327
v  3.5653 2.3270 0.8340
v  3.5513 2.3270 0.8411
v  3.5411 2.3256 0.8527
v  3.5360 2.3231 0.8673
v  3.5370 2.3197 0.8825
v  3.5439 2.3161 0.8961
v  3.5555 2.3127 0.9059
v  3.5702 2.3101 0.9105
v  3.5857 2.3087 0.9092
v  3.5996 2.3087 0.9022
v  3.6099 2.3101 0.8905
v  3.6149 2.3126 0.8759
v  3.6085 2.3326 0.8499
v  3.6153 2.3289 0.8635
v  3.5969 2.3359 0.8401
v  3.5822 2.3385 0.8355
v  3.5667 2.3400 0.8368
v  3.5528 2.3400 0.8438
v  3.5425 2.3386 0.8555
v  3.5375 2.3361 0.8700
v  3.5384 2.3327 0.8853
v  3.5453 2.3291 0.8988
v  3.5569 2.3257 0.9086
v  3.5716 2.3231 0.9133
v  3.5871 2.3217 0.9120
v  3.6010 2.3217 0.9049
v  3.6113 2.3230 0.8933
v  3.6163 2.3256 0.8787
v  3.5769 2.3308 0.8744
# 66 vertices

vn -0.1064 -0.9725 -0.2073
vn 0.9611 -0.0471 -0.2722
vn 0.7904 0.0438 -0.6110
vn 0.4994 0.1281 -0.8569
vn 0.1323 0.1928 -0.9723
vn -0.2549 0.2282 -0.9396
vn -0.6033 0.2289 -0.7640
vn -0.8598 0.1947 -0.4720
vn -0.9855 0.1309 -0.1081
vn -0.9611 0.0471 0.2722
vn -0.7904 -0.0438 0.6110
vn -0.4994 -0.1281 0.8569
vn -0.1323 -0.1928 0.9723
vn 0.2549 -0.2282 0.9396
vn 0.6033 -0.2289 0.7640
vn 0.8598 -0.1947 0.4720
vn 0.9855 -0.1309 0.1081
vn 0.1064 0.9725 0.2073
# 18 vertex normals

vt 0.5000 0.0000 0.0000
vt 0.8125 0.0000 1.0000
vt 0.7500 0.0000 1.0000
vt 0.8750 0.0000 1.0000
vt 0.9375 0.0000 1.0000
vt 0.0000 0.0000 1.0000
vt -0.0625 0.0000 1.0000
vt 0.0625 0.0000 1.0000
vt 0.1250 0.0000 1.0000
vt 0.1875 0.0000 1.0000
vt 0.2500 0.0000 1.0000
vt 0.3125 0.0000 1.0000
vt 0.3750 0.0000 1.0000
vt 0.4375 0.0000 1.0000
vt 0.5000 0.0000 1.0000
vt 0.5625 0.0000 1.0000
vt 0.6250 0.0000 1.0000
vt 0.6875 0.0000 1.0000
vt 0.8125 0.3333 1.0000
vt 0.7500 0.3333 1.0000
vt 0.8750 0.3333 1.0000
vt 0.9375 0.3333 1.0000
vt 0.0000 0.3333 1.0000
vt -0.0625 0.3333 1.0000
vt 0.0625 0.3333 1.0000
vt 0.1250 0.3333 1.0000
vt 0.1875 0.3333 1.0000
vt 0.2500 0.3333 1.0000
vt 0.3125 0.3333 1.0000
vt 0.3750 0.3333 1.0000
vt 0.4375 0.3333 1.0000
vt 0.5000 0.3333 1.0000
vt 0.5625 0.3333 1.0000
vt 0.6250 0.3333 1.0000
vt 0.6875 0.3333 1.0000
vt 0.8125 0.6667 1.0000
vt 0.7500 0.6667 1.0000
vt 0.8750 0.6667 1.0000
vt 0.9375 0.6667 1.0000
vt 0.0000 0.6667 1.0000
vt -0.0625 0.6667 1.0000
vt 0.0625 0.6667 1.0000
vt 0.1250 0.6667 1.0000
vt 0.1875 0.6667 1.0000
vt 0.2500 0.6667 1.0000
vt 0.3125 0.6667 1.0000
vt 0.3750 0.6667 1.0000
vt 0.4375 0.6667 1.0000
vt 0.5000 0.6667 1.0000
vt 0.5625 0.6667 1.0000
vt 0.6250 0.6667 1.0000
vt 0.6875 0.6667 1.0000
vt 0.8125 1.0000 1.0000
vt 0.7500 1.0000 1.0000
vt 0.8750 1.0000 1.0000
vt 0.9375 1.0000 1.0000
vt 0.0000 1.0000 1.0000
vt -0.0625 1.0000 1.0000
vt 0.0625 1.0000 1.0000
vt 0.1250 1.0000 1.0000
vt 0.1875 1.0000 1.0000
vt 0.2500 1.0000 1.0000
vt 0.3125 1.0000 1.0000
vt 0.3750 1.0000 1.0000
vt 0.4375 1.0000 1.0000
vt 0.5000 1.0000 1.0000
vt 0.5625 1.0000 1.0000
vt 0.6250 1.0000 1.0000
vt 0.6875 1.0000 1.0000
vt 0.5000 1.0000 0.0000
# 70 texture coords

g button2
usemtl button2
s 1
f 1/1/1 2/2/1 3/3/1 
f 1/1/1 4/4/1 2/2/1 
f 1/1/1 5/5/1 4/4/1 
f 1/1/1 6/6/1 5/7/1 
f 1/1/1 7/8/1 6/6/1 
f 1/1/1 8/9/1 7/8/1 
f 1/1/1 9/10/1 8/9/1 
f 1/1/1 10/11/1 9/10/1 
f 1/1/1 11/12/1 10/11/1 
f 1/1/1 12/13/1 11/12/1 
f 1/1/1 13/14/1 12/13/1 
f 1/1/1 14/15/1 13/14/1 
f 1/1/1 15/16/1 14/15/1 
f 1/1/1 16/17/1 15/16/1 
f 1/1/1 17/18/1 16/17/1 
f 1/1/1 3/3/1 17/18/1 
s 8
f 3/3/2 18/19/3 19/20/2 
f 3/3/2 2/2/3 18/19/3 
f 2/2/3 20/21/4 18/19/3 
f 2/2/3 4/4/4 20/21/4 
f 4/4/4 21/22/5 20/21/4 
f 4/4/4 5/5/5 21/22/5 
f 5/7/5 22/23/6 21/24/5 
f 5/7/5 6/6/6 22/23/6 
f 6/6/6 23/25/7 22/23/6 
f 6/6/6 7/8/7 23/25/7 
f 7/8/7 24/26/8 23/25/7 
f 7/8/7 8/9/8 24/26/8 
f 8/9/8 25/27/9 24/26/8 
f 8/9/8 9/10/9 25/27/9 
f 9/10/9 26/28/10 25/27/9 
f 9/10/9 10/11/10 26/28/10 
f 10/11/10 27/29/11 26/28/10 
f 10/11/10 11/12/11 27/29/11 
f 11/12/11 28/30/12 27/29/11 
f 11/12/11 12/13/12 28/30/12 
f 12/13/12 29/31/13 28/30/12 
f 12/13/12 13/14/13 29/31/13 
f 13/14/13 30/32/14 29/31/13 
f 13/14/13 14/15/14 30/32/14 
f 14/15/14 31/33/15 30/32/14 
f 14/15/14 15/16/15 31/33/15 
f 15/16/15 32/34/16 31/33/15 
f 15/16/15 16/17/16 32/34/16 
f 16/17/16 33/35/17 32/34/16 
f 16/17/16 17/18/17 33/35/17 
f 17/18/17 19/20/2 33/35/17 
f 17/18/17 3/3/2 19/20/2 
f 19/20/2 34/36/3 35/37/2 
f 19/20/2 18/19/3 34/36/3 
f 18/19/3 36/38/4 34/36/3 
f 18/19/3 20/21/4 36/38/4 
f 20/21/4 37/39/5 36/38/4 
f 20/21/4 21/22/5 37/39/5 
f 21/24/5 38/40/6 37/41/5 
f 21/24/5 22/23/6 38/40/6 
f 22/23/6 39/42/7 38/40/6 
f 22/23/6 23/25/7 39/42/7 
f 23/25/7 40/43/8 39/42/7 
f 23/25/7 24/26/8 40/43/8 
f 24/26/8 41/44/9 40/43/8 
f 24/26/8 25/27/9 41/44/9 
f 25/27/9 42/45/10 41/44/9 
f 25/27/9 26/28/10 42/45/10 
f 26/28/10 43/46/11 42/45/10 
f 26/28/10 27/29/11 43/46/11 
f 27/29/11 44/47/12 43/46/11 
f 27/29/11 28/30/12 44/47/12 
f 28/30/12 45/48/13 44/47/12 
f 28/30/12 29/31/13 45/48/13 
f 29/31/13 46/49/14 45/48/13 
f 29/31/13 30/32/14 46/49/14 
f 30/32/14 47/50/15 46/49/14 
f 30/32/14 31/33/15 47/50/15 
f 31/33/15 48/51/16 47/50/15 
f 31/33/15 32/34/16 48/51/16 
f 32/34/16 49/52/17 48/51/16 
f 32/34/16 33/35/17 49/52/17 
f 33/35/17 35/37/2 49/52/17 
f 33/35/17 19/20/2 35/37/2 
f 35/37/2 50/53/3 51/54/2 
f 35/37/2 34/36/3 50/53/3 
f 34/36/3 52/55/4 50/53/3 
f 34/36/3 36/38/4 52/55/4 
f 36/38/4 53/56/5 52/55/4 
f 36/38/4 37/39/5 53/56/5 
f 37/41/5 54/57/6 53/58/5 
f 37/41/5 38/40/6 54/57/6 
f 38/40/6 55/59/7 54/57/6 
f 38/40/6 39/42/7 55/59/7 
f 39/42/7 56/60/8 55/59/7 
f 39/42/7 40/43/8 56/60/8 
f 40/43/8 57/61/9 56/60/8 
f 40/43/8 41/44/9 57/61/9 
f 41/44/9 58/62/10 57/61/9 
f 41/44/9 42/45/10 58/62/10 
f 42/45/10 59/63/11 58/62/10 
f 42/45/10 43/46/11 59/63/11 
f 43/46/11 60/64/12 59/63/11 
f 43/46/11 44/47/12 60/64/12 
f 44/47/12 61/65/13 60/64/12 
f 44/47/12 45/48/13 61/65/13 
f 45/48/13 62/66/14 61/65/13 
f 45/48/13 46/49/14 62/66/14 
f 46/49/14 63/67/15 62/66/14 
f 46/49/14 47/50/15 63/67/15 
f 47/50/15 64/68/16 63/67/15 
f 47/50/15 48/51/16 64/68/16 
f 48/51/16 65/69/17 64/68/16 
f 48/51/16 49/52/17 65/69/17 
f 49/52/17 51/54/2 65/69/17 
f 49/52/17 35/37/2 51/54/2 
s 1
f 66/70/18 51/54/18 50/53/18 
f 66/70/18 50/53/18 52/55/18 
f 66/70/18 52/55/18 53/56/18 
f 66/70/18 53/58/18 54/57/18 
f 66/70/18 54/57/18 55/59/18 
f 66/70/18 55/59/18 56/60/18 
f 66/70/18 56/60/18 57/61/18 
f 66/70/18 57/61/18 58/62/18 
f 66/70/18 58/62/18 59/63/18 
f 66/70/18 59/63/18 60/64/18 
f 66/70/18 60/64/18 61/65/18 
f 66/70/18 61/65/18 62/66/18 
f 66/70/18 62/66/18 63/67/18 
f 66/70/18 63/67/18 64/68/18 
f 66/70/18 64/68/18 65/69/18 
f 66/70/18 65/69/18 51/54/18 
# 128 faces

