# 3ds Max Wavefront OBJ Exporter v0.97b - (c)2007 guruware
# 创建的文件:03.04.2018 10:28:31

mtllib Xaxis.mtl

#
# object STC800_Xzhou
#

v  1.1399 6.0203 -1.8000
v  1.1399 3.3003 -4.3000
v  1.1399 6.0203 -3.2200
v  1.1399 1.3003 -4.3000
v  1.1399 1.3003 -1.8000
v  1.1399 1.3003 -2.0000
v  1.1399 1.3003 -4.1000
v  -0.8801 3.3003 -4.3000
v  -0.8801 6.0203 -1.8000
v  -0.8801 6.0203 -3.2200
v  -0.8801 1.3003 -4.3000
v  -0.8801 1.3003 -4.1000
v  -0.8801 1.3003 -2.0000
v  -0.8801 1.3003 -1.8000
v  -0.8601 6.0203 -1.8000
v  0.6599 6.0203 -1.8000
v  -0.8601 6.0203 -1.7100
v  -0.8601 1.3003 -1.7100
v  0.6599 1.3003 -1.7100
v  0.6599 6.0203 -1.7100
v  -0.8601 1.3003 -1.8000
v  0.6599 1.3003 -1.8000
v  -0.8801 1.2003 -4.3000
v  1.1399 1.2003 -4.3000
v  1.1399 1.2003 -4.1000
v  -0.8801 1.2003 -4.1000
v  1.1399 1.2003 -2.0000
v  1.1399 1.2003 -1.8000
v  0.6599 1.2003 -1.8000
v  -0.8601 1.2003 -1.8000
v  -0.8801 1.2003 -1.8000
v  -0.8801 1.2003 -2.0000
# 32 vertices

vn 1.0000 -0.0000 0.0000
vn 1.0000 0.0000 0.0000
vn 1.0000 0.0000 -0.0000
vn -1.0000 -0.0000 -0.0000
vn -1.0000 0.0000 -0.0000
vn 0.0000 0.0000 -1.0000
vn 0.0000 0.3690 -0.9294
vn -0.0000 -1.0000 0.0000
vn 0.0000 1.0000 0.0000
vn -0.0000 0.0000 1.0000
vn 0.0000 0.0000 1.0000
vn 0.0000 -1.0000 -0.0000
vn 0.0000 -0.0000 1.0000
vn -1.0000 0.0000 0.0000
vn -0.0000 -0.0000 -1.0000
# 15 vertex normals

vt 0.4874 0.2576 0.0000
vt 0.2180 0.0100 0.0000
vt 0.4874 0.1170 0.0000
vt 0.0199 0.0100 0.0000
vt 0.0199 0.2576 0.0000
vt 0.0199 0.2378 0.0000
vt 0.0199 0.0298 0.0000
vt 0.2794 0.2884 0.0000
vt 0.0100 0.5360 0.0000
vt 0.0100 0.3954 0.0000
vt 0.4775 0.2884 0.0000
vt 0.4775 0.3082 0.0000
vt 0.4775 0.5162 0.0000
vt 0.4775 0.5360 0.0000
vt 0.2794 0.7669 0.0000
vt 0.2794 0.5668 0.0000
vt 0.4775 0.5668 0.0000
vt 0.4775 0.7669 0.0000
vt 0.0100 0.7669 0.0000
vt 0.0100 0.5668 0.0000
vt 0.7262 0.4885 0.0000
vt 0.5182 0.4885 0.0000
vt 0.5182 0.2884 0.0000
vt 0.7262 0.2884 0.0000
vt 0.7106 0.7163 0.0000
vt 0.5105 0.7163 0.0000
vt 0.5105 0.5757 0.0000
vt 0.5125 0.5757 0.0000
vt 0.6630 0.5757 0.0000
vt 0.7106 0.5757 0.0000
vt 0.9857 0.1606 0.0000
vt 0.5182 0.1606 0.0000
vt 0.5182 0.0100 0.0000
vt 0.9857 0.0100 0.0000
vt 0.4874 0.9900 0.0000
vt 0.0199 0.9900 0.0000
vt 0.0199 0.9880 0.0000
vt 0.4874 0.9880 0.0000
vt 0.0199 0.7899 0.0000
vt 0.4874 0.7899 0.0000
vt 0.4874 0.8375 0.0000
vt 0.0199 0.8375 0.0000
vt 0.2010 0.8778 0.0000
vt 0.3516 0.8778 0.0000
vt 0.3516 0.8867 0.0000
vt 0.2010 0.8867 0.0000
vt 0.5105 0.7899 0.0000
vt 0.9780 0.7899 0.0000
vt 0.9780 0.7988 0.0000
vt 0.5105 0.7988 0.0000
vt 0.5125 0.5668 0.0000
vt 0.6630 0.5668 0.0000
vt 0.5182 0.1836 0.0000
vt 0.9857 0.1836 0.0000
vt 0.9857 0.1925 0.0000
vt 0.5182 0.1925 0.0000
vt 0.1515 0.9120 0.0000
vt 0.3516 0.9120 0.0000
vt 0.3516 0.9318 0.0000
vt 0.1515 0.9318 0.0000
vt -999.5001 570.5001 0.0000
vt -899.5002 570.5001 0.0000
vt -899.5002 330.5001 0.0000
vt -899.5001 -429.4999 0.0000
vt -899.5001 -439.4999 0.0000
vt -999.4999 -439.4999 0.0000
vt 0.4874 0.5668 0.0000
vt 0.4874 0.7669 0.0000
vt 0.0100 0.0298 0.0000
vt 0.0100 0.0100 0.0000
vt 0.3516 0.9043 0.0000
vt 0.1515 0.9043 0.0000
vt 0.1515 0.8944 0.0000
vt 0.3516 0.8944 0.0000
vt 0.4874 0.2884 0.0000
vt 0.4874 0.3082 0.0000
vt 0.0100 0.2576 0.0000
vt 0.0100 0.2378 0.0000
vt 0.0100 0.8375 0.0000
vt 0.0100 0.7899 0.0000
vt 0.0100 0.9880 0.0000
vt 0.0100 0.9900 0.0000
vt 0.4874 0.5162 0.0000
vt 0.4874 0.5360 0.0000
vt 0.1515 0.9422 0.0000
vt 0.3516 0.9422 0.0000
vt 0.3516 0.9521 0.0000
vt 0.1515 0.9521 0.0000
# 88 texture coords

g STC800_Xzhou
usemtl STC800_Yzhou
s 1
f 1/1/1 2/2/2 3/3/1 
f 4/4/3 2/2/2 1/1/1 
f 1/1/1 5/5/3 6/6/3 
f 1/1/1 6/6/3 7/7/3 
f 4/4/3 1/1/1 7/7/3 
f 8/8/4 9/9/4 10/10/5 
f 9/9/4 8/8/4 11/11/4 
f 9/9/4 11/11/4 12/12/4 
f 9/9/4 12/12/4 13/13/4 
f 9/9/4 13/13/4 14/14/4 
s off
f 8/15/6 2/16/6 4/17/6 
f 4/17/6 11/18/6 8/15/6 
f 10/19/7 3/20/7 2/16/7 
f 2/16/7 8/15/7 10/19/7 
s 2
f 13/21/8 12/22/8 7/23/8 
f 7/23/8 6/24/8 13/21/8 
f 3/25/9 10/26/9 9/27/9 
f 3/25/9 9/27/9 15/28/9 
f 3/25/9 15/28/9 16/29/9 
f 1/30/9 3/25/9 16/29/9 
s off
f 17/31/10 18/32/10 19/33/10 
f 19/33/10 20/34/10 17/31/10 
f 9/35/11 14/36/11 21/37/11 
f 21/37/11 15/38/11 9/35/11 
f 5/39/10 1/40/10 16/41/10 
f 16/41/10 22/42/10 5/39/10 
f 21/43/12 22/44/12 19/45/12 
f 19/45/12 18/46/12 21/43/12 
f 22/47/2 16/48/2 20/49/2 
f 20/49/2 19/50/2 22/47/2 
f 16/29/9 15/28/9 17/51/9 
f 17/51/9 20/52/9 16/29/9 
f 15/53/4 21/54/4 18/55/4 
f 18/55/4 17/56/4 15/53/4 
s 2
f 23/57/8 24/58/8 25/59/8 
f 25/59/8 26/60/8 23/57/8 
f 27/61/8 28/62/8 29/63/8 
f 30/64/8 31/65/8 32/66/8 
f 29/63/8 30/64/8 32/66/8 
f 27/61/8 29/63/8 32/66/8 
s off
f 11/18/6 4/17/6 24/67/6 
f 24/67/6 23/68/6 11/18/6 
f 4/4/2 7/7/2 25/69/2 
f 25/69/2 24/70/2 4/4/2 
f 7/71/13 12/72/13 26/73/13 
f 26/73/13 25/74/13 7/71/13 
f 12/12/14 11/11/14 23/75/14 
f 23/75/14 26/76/14 12/12/14 
f 6/6/2 5/5/2 28/77/2 
f 28/77/2 27/78/2 6/6/2 
f 5/39/10 22/42/10 29/79/10 
f 29/79/10 28/80/10 5/39/10 
f 22/42/10 21/37/10 30/81/10 
f 30/81/10 29/79/10 22/42/10 
f 21/37/11 14/36/11 31/82/11 
f 31/82/11 30/81/11 21/37/11 
f 14/14/5 13/13/5 32/83/5 
f 32/83/5 31/84/5 14/14/5 
f 13/85/15 6/86/15 27/87/15 
f 27/87/15 32/88/15 13/85/15 
# 60 faces

