# 3ds Max Wavefront OBJ Exporter v0.97b - (c)2007 guruware
# 创建的文件:03.04.2018 10:33:32

mtllib Yaxis.mtl

#
# object STC800_Yzhou
#

v  0.6799 4.8422 -1.6900
v  -0.8801 4.8422 -1.6900
v  -0.8801 3.3422 -1.6900
v  0.6799 3.3422 -1.6900
v  -0.8801 3.3422 -1.7100
v  0.6799 3.3422 -1.7100
v  0.6799 4.8475 -1.7100
v  -0.8801 4.8475 -1.7100
v  0.6799 3.3422 -1.8000
v  0.6799 4.8475 -1.8000
v  0.6599 4.8475 -1.7100
v  0.6599 3.3422 -1.7100
v  0.6599 3.3422 -1.8000
v  0.6599 4.8475 -1.8000
v  -0.8601 3.3422 -1.8000
v  -0.8601 3.3422 -1.7100
v  -0.8801 3.3422 -1.8000
v  -0.8801 4.8475 -1.8000
v  -0.8601 4.8475 -1.7100
v  -0.8601 4.8475 -1.8000
v  -0.2701 3.3422 -1.6900
v  -0.2701 4.8422 -1.6900
v  -0.2701 4.3756 -0.5900
v  -0.2701 3.4386 -0.5900
v  -0.5101 4.3756 -0.5900
v  -0.6160 4.8422 -1.6900
v  -0.6160 3.3422 -1.6900
v  -0.5101 3.4386 -0.5900
v  0.2699 3.3422 -1.6900
v  0.2699 3.4563 -1.0425
v  0.2699 4.4775 -0.9080
v  0.2699 4.8422 -1.6900
v  0.6599 4.8422 -1.6900
v  0.6599 4.4775 -0.9080
v  0.6599 3.3422 -1.6900
v  0.6599 3.4563 -1.0425
v  0.6599 4.0645 -0.6017
v  0.2699 4.0645 -0.6017
v  0.2699 3.9881 -0.5962
v  0.6599 3.9881 -0.5962
v  0.2699 4.4404 -0.8412
v  0.6599 4.4404 -0.8412
v  0.2699 4.3941 -0.7802
v  0.6599 4.3941 -0.7802
v  0.2699 4.3397 -0.7264
v  0.6599 4.3397 -0.7264
v  0.2699 4.2783 -0.6808
v  0.6599 4.2783 -0.6808
v  0.2699 4.2110 -0.6444
v  0.6599 4.2110 -0.6444
v  0.2699 4.1392 -0.6178
v  0.6599 4.1392 -0.6178
v  0.2699 3.8944 -0.6044
v  0.6599 3.8944 -0.6044
v  0.6599 3.4807 -0.9516
v  0.2699 3.4807 -0.9516
v  0.6599 3.5205 -0.8662
v  0.2699 3.5205 -0.8662
v  0.6599 3.5745 -0.7891
v  0.2699 3.5745 -0.7891
v  0.6599 3.6410 -0.7226
v  0.2699 3.6410 -0.7226
v  0.6599 3.7181 -0.6686
v  0.2699 3.7181 -0.6686
v  0.6599 3.8034 -0.6288
v  0.2699 3.8034 -0.6288
v  0.6599 4.6439 -0.9500
v  0.9799 4.6439 -0.9500
v  0.9799 4.8422 -1.6900
v  0.6599 4.2386 -0.5900
v  0.6599 3.3422 -0.9500
v  0.6599 3.4386 -0.5900
v  0.6599 4.3932 -0.6314
v  0.6599 4.4785 -0.9500
v  0.9799 4.3932 -0.6314
v  0.9799 4.4785 -0.9500
v  0.9799 3.3422 -0.9500
v  0.9799 3.4386 -0.5900
v  0.9799 3.3422 -1.6900
v  0.9799 4.2386 -0.5900
# 80 vertices

vn -0.0000 -0.0000 1.0000
vn 0.0000 -1.0000 -0.0000
vn 0.0000 0.0000 -1.0000
vn -0.0000 0.9659 0.2588
vn -1.0000 -0.0000 -0.0000
vn 1.0000 0.0000 0.0000
vn -0.0000 1.0000 0.0000
vn -0.9954 -0.0000 0.0958
vn -0.0000 0.9206 0.3905
vn 0.0000 -0.9962 0.0874
vn -0.0000 0.9063 0.4226
vn -0.0000 0.1413 0.9900
vn -0.0000 0.8375 0.5465
vn -0.0000 0.7518 0.6593
vn -0.0000 0.6511 0.7590
vn -0.0000 0.5373 0.8434
vn -0.0000 0.4127 0.9109
vn -0.0000 0.2798 0.9600
vn 0.0000 -0.9848 0.1736
vn 0.0000 -0.1736 0.9848
vn 0.0000 -0.9397 0.3420
vn 0.0000 -0.8660 0.5000
vn 0.0000 -0.7660 0.6428
vn 0.0000 -0.6428 0.7660
vn 0.0000 -0.5000 0.8660
vn 0.0000 -0.3420 0.9397
vn 0.0000 -0.9659 0.2588
vn -0.0000 0.2588 0.9659
# 28 vertex normals

vt 0.2637 0.5275 0.0000
vt 0.0100 0.5275 0.0000
vt 0.0100 0.2836 0.0000
vt 0.2637 0.2836 0.0000
vt 0.8388 0.8504 0.0000
vt 0.5852 0.8504 0.0000
vt 0.5852 0.8471 0.0000
vt 0.8388 0.8471 0.0000
vt 0.2637 0.0100 0.0000
vt 0.2637 0.2548 0.0000
vt 0.0100 0.2548 0.0000
vt 0.0100 0.0100 0.0000
vt 0.8772 0.7227 0.0000
vt 0.6235 0.7227 0.0000
vt 0.6235 0.7194 0.0000
vt 0.8772 0.7194 0.0000
vt 0.8300 0.8792 0.0000
vt 0.8300 0.8825 0.0000
vt 0.5860 0.8825 0.0000
vt 0.5852 0.8792 0.0000
vt 0.8291 0.9394 0.0000
vt 0.5852 0.9394 0.0000
vt 0.5852 0.9361 0.0000
vt 0.8300 0.9361 0.0000
vt 0.8683 0.6906 0.0000
vt 0.6235 0.6906 0.0000
vt 0.6235 0.6760 0.0000
vt 0.8683 0.6760 0.0000
vt 0.8100 0.4153 0.0000
vt 0.5652 0.4153 0.0000
vt 0.5652 0.4120 0.0000
vt 0.8100 0.4120 0.0000
vt 0.3202 0.7354 0.0000
vt 0.3202 0.7387 0.0000
vt 0.3056 0.7387 0.0000
vt 0.3056 0.7354 0.0000
vt 0.4599 0.7387 0.0000
vt 0.4453 0.7387 0.0000
vt 0.4453 0.7354 0.0000
vt 0.4599 0.7354 0.0000
vt 0.8300 0.9714 0.0000
vt 0.5852 0.9714 0.0000
vt 0.5852 0.9682 0.0000
vt 0.8300 0.9682 0.0000
vt 0.7377 0.8183 0.0000
vt 0.4929 0.8183 0.0000
vt 0.4929 0.8037 0.0000
vt 0.7377 0.8037 0.0000
vt 0.9419 0.4463 0.0000
vt 0.9273 0.4463 0.0000
vt 0.9273 0.4430 0.0000
vt 0.9419 0.4430 0.0000
vt 0.7788 0.4430 0.0000
vt 0.7934 0.4430 0.0000
vt 0.7934 0.4463 0.0000
vt 0.7788 0.4463 0.0000
vt 0.2548 0.9900 0.0000
vt 0.0100 0.9900 0.0000
vt 0.0100 0.9867 0.0000
vt 0.2548 0.9867 0.0000
vt 0.8100 0.3832 0.0000
vt 0.5652 0.3832 0.0000
vt 0.5652 0.3686 0.0000
vt 0.8100 0.3686 0.0000
vt 0.5852 0.9145 0.0000
vt 0.5852 0.9112 0.0000
vt 0.8300 0.9112 0.0000
vt 0.8300 0.9145 0.0000
vt 0.7377 0.7603 0.0000
vt 0.7377 0.7749 0.0000
vt 0.4929 0.7749 0.0000
vt 0.4929 0.7603 0.0000
vt 0.2925 0.0100 0.0000
vt 0.5364 0.0100 0.0000
vt 0.4605 0.1889 0.0000
vt 0.3082 0.1889 0.0000
vt 0.0859 0.7352 0.0000
vt 0.0100 0.5563 0.0000
vt 0.2539 0.5563 0.0000
vt 0.2382 0.7352 0.0000
vt 0.8091 0.1660 0.0000
vt 0.8091 0.2222 0.0000
vt 0.5652 0.2222 0.0000
vt 0.5652 0.1660 0.0000
vt 0.4713 0.7603 0.0000
vt 0.4713 0.8165 0.0000
vt 0.2925 0.7993 0.0000
vt 0.2925 0.7603 0.0000
vt 0.5061 0.5887 0.0000
vt 0.6849 0.5887 0.0000
vt 0.6849 0.6277 0.0000
vt 0.5061 0.6449 0.0000
vt 0.4448 0.2177 0.0000
vt 0.4448 0.2567 0.0000
vt 0.2925 0.2567 0.0000
vt 0.2925 0.2177 0.0000
vt 0.5364 0.2836 0.0000
vt 0.5178 0.3889 0.0000
vt 0.3518 0.4107 0.0000
vt 0.2925 0.2836 0.0000
vt 0.9651 0.0100 0.0000
vt 0.9651 0.0734 0.0000
vt 0.8379 0.0734 0.0000
vt 0.8379 0.0100 0.0000
vt 0.5652 0.2836 0.0000
vt 0.8091 0.2836 0.0000
vt 0.8091 0.3470 0.0000
vt 0.5652 0.3470 0.0000
vt 0.7498 0.1372 0.0000
vt 0.5838 0.1153 0.0000
vt 0.5652 0.0100 0.0000
vt 0.8091 0.0100 0.0000
vt 0.3049 0.8381 0.0000
vt 0.3049 0.9015 0.0000
vt 0.2925 0.9015 0.0000
vt 0.2925 0.8381 0.0000
vt 0.7788 0.5408 0.0000
vt 0.8422 0.5408 0.0000
vt 0.8422 0.5517 0.0000
vt 0.7788 0.5517 0.0000
vt 0.7788 0.5309 0.0000
vt 0.8422 0.5309 0.0000
vt 0.3496 0.9015 0.0000
vt 0.3496 0.8381 0.0000
vt 0.3585 0.8381 0.0000
vt 0.3585 0.9015 0.0000
vt 0.3397 0.9015 0.0000
vt 0.3397 0.8381 0.0000
vt 0.3287 0.9015 0.0000
vt 0.3287 0.8381 0.0000
vt 0.3170 0.9015 0.0000
vt 0.3170 0.8381 0.0000
vt 0.9360 0.2294 0.0000
vt 0.8307 0.2294 0.0000
vt 0.8307 0.1660 0.0000
vt 0.9360 0.1660 0.0000
vt 0.8485 0.6451 0.0000
vt 0.8485 0.6299 0.0000
vt 0.9119 0.6299 0.0000
vt 0.9119 0.6451 0.0000
vt 0.5564 0.8471 0.0000
vt 0.5564 0.8619 0.0000
vt 0.4929 0.8619 0.0000
vt 0.4929 0.8471 0.0000
vt 0.5564 0.8758 0.0000
vt 0.4929 0.8758 0.0000
vt 0.5564 0.8883 0.0000
vt 0.4929 0.8883 0.0000
vt 0.5564 0.8992 0.0000
vt 0.4929 0.8992 0.0000
vt 0.9119 0.5887 0.0000
vt 0.9119 0.6012 0.0000
vt 0.8485 0.6012 0.0000
vt 0.8485 0.5887 0.0000
vt 0.9119 0.6151 0.0000
vt 0.8485 0.6151 0.0000
vt 0.2981 0.6903 0.0000
vt 0.2925 0.6760 0.0000
vt 0.4599 0.6789 0.0000
vt 0.4552 0.6903 0.0000
vt 0.3061 0.7033 0.0000
vt 0.4488 0.7010 0.0000
vt 0.3162 0.7148 0.0000
vt 0.4410 0.7107 0.0000
vt 0.3282 0.7243 0.0000
vt 0.4320 0.7192 0.0000
vt 0.3417 0.7316 0.0000
vt 0.4218 0.7264 0.0000
vt 0.3562 0.7364 0.0000
vt 0.4107 0.7320 0.0000
vt 0.3713 0.7387 0.0000
vt 0.3989 0.7360 0.0000
vt 0.3866 0.7383 0.0000
vt 0.7925 0.4748 0.0000
vt 0.9352 0.4773 0.0000
vt 0.9415 0.4880 0.0000
vt 0.7844 0.4878 0.0000
vt 0.9463 0.4995 0.0000
vt 0.7788 0.5021 0.0000
vt 0.8146 0.4539 0.0000
vt 0.9183 0.4591 0.0000
vt 0.9274 0.4676 0.0000
vt 0.8026 0.4634 0.0000
vt 0.8426 0.4418 0.0000
vt 0.8971 0.4463 0.0000
vt 0.9082 0.4519 0.0000
vt 0.8281 0.4466 0.0000
vt 0.8731 0.4400 0.0000
vt 0.8853 0.4423 0.0000
vt 0.8578 0.4395 0.0000
vt 0.8269 0.6407 0.0000
vt 0.7065 0.6407 0.0000
vt 0.7065 0.5887 0.0000
vt 0.8269 0.5887 0.0000
vt 0.3315 0.6472 0.0000
vt 0.4773 0.5887 0.0000
vt 0.4616 0.6472 0.0000
vt 0.3064 0.6405 0.0000
vt 0.2925 0.5887 0.0000
vt 0.3801 0.8899 0.0000
vt 0.3801 0.8381 0.0000
vt 0.4321 0.8381 0.0000
vt 0.4321 0.8899 0.0000
vt 0.3510 0.9752 0.0000
vt 0.2925 0.9752 0.0000
vt 0.2925 0.9231 0.0000
vt 0.3510 0.9231 0.0000
vt 0.6019 0.7280 0.0000
vt 0.4815 0.7280 0.0000
vt 0.4815 0.6760 0.0000
vt 0.6019 0.6760 0.0000
vt 0.5652 0.4395 0.0000
vt 0.7110 0.4981 0.0000
vt 0.5809 0.4981 0.0000
vt 0.7361 0.4913 0.0000
vt 0.7500 0.4395 0.0000
vt 0.5652 0.5538 0.0000
vt 0.5652 0.5269 0.0000
vt 0.6172 0.5269 0.0000
vt 0.6172 0.5538 0.0000
vt 0.9608 0.3356 0.0000
vt 0.8307 0.3356 0.0000
vt 0.8307 0.2836 0.0000
vt 0.9608 0.2836 0.0000
vt 0.8379 0.1201 0.0000
vt 0.8379 0.0950 0.0000
vt 0.8899 0.0950 0.0000
vt 0.8899 0.1201 0.0000
vt 0.2539 0.9651 0.0000
vt 0.0100 0.9651 0.0000
vt 0.0100 0.9131 0.0000
vt 0.2539 0.9131 0.0000
vt 0.2925 0.4395 0.0000
vt 0.5364 0.4395 0.0000
vt 0.5042 0.5599 0.0000
vt 0.2925 0.5599 0.0000
vt 0.2539 0.7640 0.0000
vt 0.2539 0.8843 0.0000
vt 0.0422 0.8843 0.0000
vt 0.0100 0.7640 0.0000
# 240 texture coords

g STC800_Yzhou
usemtl STC800_Zzhou
s 1
f 1/1/1 2/2/1 3/3/1 
f 3/3/1 4/4/1 1/1/1 
f 4/5/2 3/6/2 5/7/2 
f 5/7/2 6/8/2 4/5/2 
f 7/9/3 6/10/3 5/11/3 
f 5/11/3 8/12/3 7/9/3 
f 7/13/4 8/14/4 2/15/4 
f 2/15/4 1/16/4 7/13/4 
f 5/17/5 3/18/5 2/19/5 
f 2/19/5 8/20/5 5/17/5 
f 1/21/6 4/22/6 6/23/6 
f 6/23/6 7/24/6 1/21/6 
f 7/25/6 6/26/6 9/27/6 
f 9/27/6 10/28/6 7/25/6 
f 11/29/1 12/30/1 6/31/1 
f 6/31/1 7/32/1 11/29/1 
f 6/33/2 12/34/2 13/35/2 
f 13/35/2 9/36/2 6/33/2 
f 14/37/7 11/38/7 7/39/7 
f 7/39/7 10/40/7 14/37/7 
f 13/41/3 14/42/3 10/43/3 
f 10/43/3 9/44/3 13/41/3 
f 12/45/5 11/46/5 14/47/5 
f 14/47/5 13/48/5 12/45/5 
f 15/49/2 16/50/2 5/51/2 
f 5/51/2 17/52/2 15/49/2 
f 18/53/7 8/54/7 19/55/7 
f 19/55/7 20/56/7 18/53/7 
f 17/57/3 18/58/3 20/59/3 
f 20/59/3 15/60/3 17/57/3 
f 5/61/5 8/62/5 18/63/5 
f 18/63/5 17/64/5 5/61/5 
f 5/65/1 16/66/1 19/67/1 
f 19/67/1 8/68/1 5/65/1 
f 20/69/6 19/70/6 16/71/6 
f 16/71/6 15/72/6 20/69/6 
f 21/73/6 22/74/6 23/75/6 
f 23/75/6 24/76/6 21/73/6 
f 25/77/8 26/78/8 27/79/8 
f 27/79/8 28/80/8 25/77/8 
f 21/81/3 27/82/3 26/83/3 
f 26/83/3 22/84/3 21/81/3 
f 22/85/9 26/86/9 25/87/9 
f 25/87/9 23/88/9 22/85/9 
f 21/89/10 24/90/10 28/91/10 
f 28/91/10 27/92/10 21/89/10 
f 23/93/1 25/94/1 28/95/1 
f 28/95/1 24/96/1 23/93/1 
f 29/97/5 30/98/5 31/99/5 
f 31/99/5 32/100/5 29/97/5 
f 33/101/11 32/102/11 31/103/11 
f 31/103/11 34/104/11 33/101/11 
f 33/105/3 35/106/3 29/107/3 
f 29/107/3 32/108/3 33/105/3 
f 34/109/6 36/110/6 35/111/6 
f 35/111/6 33/112/6 34/109/6 
f 37/113/12 38/114/12 39/115/1 
f 39/115/1 40/116/1 37/113/12 
f 41/117/13 42/118/13 34/119/11 
f 34/119/11 31/120/11 41/117/13 
f 43/121/14 44/122/14 42/118/13 
f 42/118/13 41/117/13 43/121/14 
f 45/123/15 46/124/15 44/125/14 
f 44/125/14 43/126/14 45/123/15 
f 47/127/16 48/128/16 46/124/15 
f 46/124/15 45/123/15 47/127/16 
f 49/129/17 50/130/17 48/128/16 
f 48/128/16 47/127/16 49/129/17 
f 51/131/18 52/132/18 50/130/17 
f 50/130/17 49/129/17 51/131/18 
f 38/114/12 37/113/12 52/132/18 
f 52/132/18 51/131/18 38/114/12 
f 30/133/19 29/134/19 35/135/19 
f 35/135/19 36/136/19 30/133/19 
f 39/137/1 53/138/20 54/139/20 
f 54/139/20 40/140/1 39/137/1 
f 36/141/19 55/142/21 56/143/21 
f 56/143/21 30/144/19 36/141/19 
f 55/142/21 57/145/22 58/146/22 
f 58/146/22 56/143/21 55/142/21 
f 57/145/22 59/147/23 60/148/23 
f 60/148/23 58/146/22 57/145/22 
f 59/147/23 61/149/24 62/150/24 
f 62/150/24 60/148/23 59/147/23 
f 61/151/24 63/152/25 64/153/25 
f 64/153/25 62/154/24 61/151/24 
f 63/152/25 65/155/26 66/156/26 
f 66/156/26 64/153/25 63/152/25 
f 65/155/26 54/139/20 53/138/20 
f 53/138/20 66/156/26 65/155/26 
s 2
f 55/157/6 36/158/6 34/159/6 
f 34/159/6 42/160/6 55/157/6 
f 57/161/6 55/157/6 42/160/6 
f 42/160/6 44/162/6 57/161/6 
s 4
f 59/163/6 57/161/6 44/162/6 
f 44/162/6 46/164/6 59/163/6 
f 61/165/6 59/163/6 46/164/6 
f 46/164/6 48/166/6 61/165/6 
s 2
f 63/167/6 61/165/6 48/166/6 
f 48/166/6 50/168/6 63/167/6 
f 65/169/6 63/167/6 50/168/6 
f 50/168/6 52/170/6 65/169/6 
s 4
f 54/171/6 65/169/6 52/170/6 
f 52/170/6 37/172/6 54/171/6 
s 2
f 37/172/6 40/173/6 40/173/6 
f 40/173/6 54/171/6 37/172/6 
f 58/174/5 43/175/5 41/176/5 
f 41/176/5 56/177/5 58/174/5 
f 56/177/5 41/176/5 31/178/5 
f 31/178/5 30/179/5 56/177/5 
s 4
f 62/180/5 47/181/5 45/182/5 
f 45/182/5 60/183/5 62/180/5 
f 60/183/5 45/182/5 43/175/5 
f 43/175/5 58/174/5 60/183/5 
s 2
f 66/184/5 51/185/5 49/186/5 
f 49/186/5 64/187/5 66/184/5 
f 64/187/5 49/186/5 47/181/5 
f 47/181/5 62/180/5 64/187/5 
s 4
f 39/188/5 38/189/5 53/190/5 
f 53/190/5 39/188/5 39/188/5 
f 53/190/5 38/189/5 51/185/5 
f 51/185/5 66/184/5 53/190/5 
s 1
f 33/191/4 67/192/4 68/193/4 
f 68/193/4 69/194/4 33/191/4 
f 70/195/5 71/196/5 72/197/5 
f 71/196/5 70/195/5 73/198/5 
f 73/198/5 74/199/5 71/196/5 
f 74/200/4 73/201/4 75/202/4 
f 75/202/4 76/203/4 74/200/4 
f 72/204/27 71/205/27 77/206/27 
f 77/206/27 78/207/27 72/204/27 
f 71/208/2 35/209/2 79/210/2 
f 79/210/2 77/211/2 71/208/2 
f 77/212/6 80/213/6 78/214/6 
f 75/215/6 80/213/6 77/212/6 
f 77/212/6 76/216/6 75/215/6 
f 67/217/1 74/218/1 76/219/1 
f 76/219/1 68/220/1 67/217/1 
f 70/221/1 72/222/1 78/223/1 
f 78/223/1 80/224/1 70/221/1 
f 73/225/28 70/226/28 80/227/28 
f 80/227/28 75/228/28 73/225/28 
f 35/229/3 33/230/3 69/231/3 
f 69/231/3 79/232/3 35/229/3 
s 2
f 79/233/6 69/234/6 68/235/6 
f 68/235/6 77/236/6 79/233/6 
f 35/237/5 71/238/5 67/239/5 
f 67/239/5 33/240/5 35/237/5 
# 148 faces

