# 3ds Max Wavefront OBJ Exporter v0.97b - (c)2007 guruware
# 创建的文件:21.12.2017 21:20:04

mtllib zzhou.mtl

#
# object JCwoshi_zhouZ
#

v  845.0005 -330.0006 -874.9999
v  -544.9995 -330.0007 -875.0001
v  -544.9993 -330.0009 -2125.0000
v  845.0007 -330.0007 -2125.0000
v  845.0002 1969.9993 -875.0001
v  845.0004 1969.9993 -1500.0001
v  -544.9996 1969.9993 -1500.0004
v  -544.9998 1969.9993 -875.0003
v  845.0006 819.9993 -2125.0000
v  -544.9994 819.9991 -2125.0002
# 10 vertices

vn 0.0000 -1.0000 0.0000
vn -0.0000 1.0000 -0.0000
vn 1.0000 0.0000 0.0000
vn 0.0000 -0.0000 -1.0000
vn 0.0000 0.2463 -0.9692
vn -1.0000 -0.0000 -0.0000
vn -0.0000 0.0000 1.0000
vn 0.0000 0.4775 -0.8786
# 8 vertex normals

vt 0.8024 0.5859 0.0000
vt 0.5158 0.5859 0.0000
vt 0.5158 0.3282 0.0000
vt 0.8024 0.3282 0.0000
vt 0.5158 0.7753 0.0000
vt 0.5158 0.6465 0.0000
vt 0.8024 0.6465 0.0000
vt 0.8024 0.7753 0.0000
vt 0.5158 0.2677 0.0000
vt 0.5158 0.0100 0.0000
vt 0.7529 0.0100 0.0000
vt 0.9900 0.1388 0.0000
vt 0.9900 0.2677 0.0000
vt 0.0100 0.3282 0.0000
vt 0.2471 0.3282 0.0000
vt 0.2471 0.6148 0.0000
vt 0.0100 0.6148 0.0000
vt 0.0100 0.9042 0.0000
vt 0.0100 0.6465 0.0000
vt 0.4842 0.6465 0.0000
vt 0.4842 0.7753 0.0000
vt 0.2471 0.9042 0.0000
vt 0.0100 0.2966 0.0000
vt 0.0100 0.0100 0.0000
vt 0.4842 0.0100 0.0000
vt 0.4842 0.2966 0.0000
vt 0.4842 0.3282 0.0000
vt 0.4842 0.6148 0.0000
# 28 texture coords

g JCwoshi_zhouZ
usemtl JCwoshi_zhouZ
s 2
f 1/1/1 2/2/1 3/3/1 
f 3/3/1 4/4/1 1/1/1 
s 4
f 5/5/2 6/6/2 7/7/2 
f 7/7/2 8/8/2 5/5/2 
s 8
f 1/9/3 4/10/3 9/11/3 
f 1/9/3 9/11/3 6/12/3 
f 1/9/3 6/12/3 5/13/3 
s 16
f 3/14/4 10/15/5 9/16/5 
f 9/16/5 4/17/4 3/14/4 
s 32
f 3/18/6 2/19/6 8/20/6 
f 8/20/6 7/21/6 10/22/6 
f 3/18/6 8/20/6 10/22/6 
s 64
f 2/23/7 1/24/7 5/25/7 
f 5/25/7 8/26/7 2/23/7 
s 16
f 7/27/8 6/28/8 9/16/5 
f 9/16/5 10/15/5 7/27/8 
# 16 faces

