# 3ds Max Wavefront OBJ Exporter v0.97b - (c)2007 guruware
# 创建的文件:09.01.2018 19:24:39

mtllib bujian1.mtl

#
# object JCwoshi_daoguiX
#

v  -14367.9121 364.5160 24888.2891
v  -9467.9121 364.5156 24888.2891
v  -9467.9121 364.5155 25988.2891
v  -14367.9121 364.5159 25988.2891
v  -14367.9121 764.5160 25538.2891
v  -9467.9121 764.5155 25538.2891
v  -9467.9121 764.5155 25338.2891
v  -14367.9121 764.5160 25338.2891
v  -9467.9121 764.5155 25988.2891
v  -14367.9121 764.5159 25988.2891
v  -14367.9121 764.5160 24888.2891
v  -9467.9121 764.5156 24888.2891
v  -9467.9121 764.5155 25688.2891
v  -14367.9121 764.5159 25688.2891
v  -14367.9121 714.5159 25688.2891
v  -9467.9121 714.5155 25688.2891
v  -9467.9121 714.5155 25538.2891
v  -14367.9121 714.5160 25538.2891
v  -14367.9121 764.5160 25188.2891
v  -9467.9121 764.5156 25188.2891
v  -9467.9121 714.5156 25188.2891
v  -14367.9121 714.5160 25188.2891
v  -14367.9121 714.5160 25338.2891
v  -9467.9121 714.5155 25338.2891
# 24 vertices

vn -0.0000 -1.0000 -0.0000
vn 0.0000 1.0000 0.0000
vn 0.0000 -0.0000 1.0000
vn -0.0000 0.0000 -1.0000
vn -1.0000 0.0000 0.0000
vn 1.0000 -0.0000 -0.0000
# 6 vertex normals

vt 0.7944 0.1861 0.0000
vt 0.0100 0.1861 0.0000
vt 0.0100 0.0100 0.0000
vt 0.7944 0.0100 0.0000
vt 0.0100 0.5274 0.0000
vt 0.7944 0.5274 0.0000
vt 0.7944 0.5595 0.0000
vt 0.0100 0.5595 0.0000
vt 0.7944 0.3597 0.0000
vt 0.0100 0.3597 0.0000
vt 0.0100 0.2957 0.0000
vt 0.7944 0.2957 0.0000
vt 0.7944 0.2762 0.0000
vt 0.0100 0.2762 0.0000
vt 0.0100 0.2121 0.0000
vt 0.7944 0.2121 0.0000
vt 0.0100 0.3793 0.0000
vt 0.7944 0.3793 0.0000
vt 0.7944 0.4273 0.0000
vt 0.0100 0.4273 0.0000
vt 0.0100 0.6356 0.0000
vt 0.7944 0.6356 0.0000
vt 0.7944 0.6596 0.0000
vt 0.0100 0.6596 0.0000
vt 0.7944 0.5014 0.0000
vt 0.0100 0.5014 0.0000
vt 0.0100 0.4534 0.0000
vt 0.7944 0.4534 0.0000
vt 0.7944 0.6095 0.0000
vt 0.0100 0.6095 0.0000
vt 0.0100 0.5855 0.0000
vt 0.7944 0.5855 0.0000
vt 0.0100 0.7132 0.0000
vt 0.7944 0.7132 0.0000
vt 0.7944 0.7212 0.0000
vt 0.0100 0.7212 0.0000
vt 0.0100 0.6857 0.0000
vt 0.7944 0.6857 0.0000
vt 0.7944 0.6937 0.0000
vt 0.0100 0.6937 0.0000
vt 0.0100 0.7407 0.0000
vt 0.7944 0.7407 0.0000
vt 0.7944 0.7487 0.0000
vt 0.0100 0.7487 0.0000
vt 0.0100 0.7683 0.0000
vt 0.7944 0.7683 0.0000
vt 0.7944 0.7763 0.0000
vt 0.0100 0.7763 0.0000
vt 0.8139 0.2762 0.0000
vt 0.8139 0.2121 0.0000
vt 0.8619 0.2121 0.0000
vt 0.8619 0.2201 0.0000
vt 0.8860 0.2201 0.0000
vt 0.8860 0.2121 0.0000
vt 0.9180 0.2121 0.0000
vt 0.9180 0.2201 0.0000
vt 0.9420 0.2201 0.0000
vt 0.9420 0.2121 0.0000
vt 0.9900 0.2121 0.0000
vt 0.9900 0.2762 0.0000
vt 0.8139 0.3597 0.0000
vt 0.8139 0.2957 0.0000
vt 0.8619 0.2957 0.0000
vt 0.8619 0.3037 0.0000
vt 0.8860 0.3037 0.0000
vt 0.8860 0.2957 0.0000
vt 0.9180 0.2957 0.0000
vt 0.9180 0.3037 0.0000
vt 0.9420 0.3037 0.0000
vt 0.9420 0.2957 0.0000
vt 0.9900 0.2957 0.0000
vt 0.9900 0.3597 0.0000
# 72 texture coords

g JCwoshi_daoguiX
usemtl JCwoshi_daoguiX
s 2
f 1/1/1 2/2/1 3/3/1 
f 3/3/1 4/4/1 1/1/1 
s 4
f 5/5/2 6/6/2 7/7/2 
f 7/7/2 8/8/2 5/5/2 
s 16
f 4/9/3 3/10/3 9/11/3 
f 9/11/3 10/12/3 4/9/3 
s 64
f 2/13/4 1/14/4 11/15/4 
f 11/15/4 12/16/4 2/13/4 
s 4
f 10/17/2 9/18/2 13/19/2 
f 13/19/2 14/20/2 10/17/2 
f 15/21/2 16/22/2 17/23/2 
f 17/23/2 18/24/2 15/21/2 
f 12/25/2 11/26/2 19/27/2 
f 19/27/2 20/28/2 12/25/2 
f 21/29/2 22/30/2 23/31/2 
f 23/31/2 24/32/2 21/29/2 
s off
f 14/33/4 13/34/4 16/35/4 
f 16/35/4 15/36/4 14/33/4 
f 6/37/3 5/38/3 18/39/3 
f 18/39/3 17/40/3 6/37/3 
f 8/41/4 7/42/4 24/43/4 
f 24/43/4 23/44/4 8/41/4 
f 20/45/3 19/46/3 22/47/3 
f 22/47/3 21/48/3 20/45/3 
f 4/49/5 10/50/5 14/51/5 
f 4/49/5 14/51/5 15/52/5 
f 4/49/5 15/52/5 18/53/5 
f 18/53/5 5/54/5 8/55/5 
f 18/53/5 8/55/5 23/56/5 
f 4/49/5 18/53/5 23/56/5 
f 4/49/5 23/56/5 22/57/5 
f 22/57/5 19/58/5 11/59/5 
f 4/49/5 22/57/5 11/59/5 
f 4/49/5 11/59/5 1/60/5 
f 2/61/6 12/62/6 20/63/6 
f 2/61/6 20/63/6 21/64/6 
f 2/61/6 21/64/6 24/65/6 
f 24/65/6 7/66/6 6/67/6 
f 24/65/6 6/67/6 17/68/6 
f 2/61/6 24/65/6 17/68/6 
f 2/61/6 17/68/6 16/69/6 
f 16/69/6 13/70/6 9/71/6 
f 2/61/6 16/69/6 9/71/6 
f 2/61/6 9/71/6 3/72/6 
# 44 faces

#
# object JCwoshi_daoguiZ
#

v  -12762.9121 564.5160 26138.2891
v  -11372.9121 564.5159 26138.2891
v  -11372.9121 564.5155 29938.2891
v  -12762.9121 564.5156 29938.2891
v  -12762.9121 764.5160 26138.2891
v  -12762.9121 764.5156 29938.2891
v  -11372.9121 764.5155 29938.2891
v  -11372.9121 764.5159 26138.2891
# 8 vertices

vn -0.0000 -1.0000 -0.0000
vn 0.0000 1.0000 0.0000
vn -1.0000 0.0000 0.0000
vn 0.0000 -0.0000 1.0000
vn 1.0000 -0.0000 -0.0000
vn -0.0000 0.0000 -1.0000
# 6 vertex normals

vt 0.9883 0.3953 0.0000
vt 0.9883 0.7532 0.0000
vt 0.0100 0.7532 0.0000
vt 0.0100 0.3953 0.0000
vt 0.9883 0.3678 0.0000
vt 0.0100 0.3678 0.0000
vt 0.0100 0.0100 0.0000
vt 0.9883 0.0100 0.0000
vt 0.9883 0.8321 0.0000
vt 0.0100 0.8321 0.0000
vt 0.0100 0.7806 0.0000
vt 0.9883 0.7806 0.0000
vt 0.7532 0.9900 0.0000
vt 0.3953 0.9900 0.0000
vt 0.3953 0.9385 0.0000
vt 0.7532 0.9385 0.0000
vt 0.9883 0.9111 0.0000
vt 0.0100 0.9111 0.0000
vt 0.0100 0.8596 0.0000
vt 0.9883 0.8596 0.0000
vt 0.3678 0.9900 0.0000
vt 0.0100 0.9900 0.0000
vt 0.0100 0.9385 0.0000
vt 0.3678 0.9385 0.0000
# 24 texture coords

g JCwoshi_daoguiZ
usemtl JCwoshi_daoguiZ
s 2
f 25/73/7 26/74/7 27/75/7 
f 27/75/7 28/76/7 25/73/7 
s 4
f 29/77/8 30/78/8 31/79/8 
f 31/79/8 32/80/8 29/77/8 
s 8
f 25/81/9 28/82/9 30/83/9 
f 30/83/9 29/84/9 25/81/9 
s 16
f 28/85/10 27/86/10 31/87/10 
f 31/87/10 30/88/10 28/85/10 
s 32
f 27/89/11 26/90/11 32/91/11 
f 32/91/11 31/92/11 27/89/11 
s 64
f 26/93/12 25/94/12 29/95/12 
f 29/95/12 32/96/12 26/93/12 
# 12 faces

#
# object JCwoshi_zhicheng
#

v  -14417.9121 64.5160 24788.2891
v  -9417.9121 64.5156 24788.2891
v  -9417.9121 64.5155 26088.2891
v  -11322.9121 64.5156 26088.2891
v  -12812.9121 64.5158 26088.2891
v  -14417.9121 64.5159 26088.2891
v  -14417.9121 364.5160 24788.2891
v  -14417.9121 364.5159 26088.2891
v  -12812.9121 364.5158 26088.2891
v  -11322.9121 364.5156 26088.2891
v  -9417.9121 364.5155 26088.2891
v  -9417.9121 364.5156 24788.2891
v  -11322.9121 64.5153 30088.2891
v  -11322.9121 364.5153 30088.2891
v  -12812.9121 364.5154 30088.2891
v  -12812.9121 64.5154 30088.2891
v  -11322.9121 564.5156 26088.2891
v  -12812.9121 564.5157 26088.2891
v  -12812.9121 564.5154 30088.2891
v  -11322.9121 564.5153 30088.2891
# 20 vertices

vn -0.0000 -1.0000 -0.0000
vn 0.0000 1.0000 0.0000
vn -1.0000 0.0000 0.0000
vn 0.0000 -0.0000 1.0000
vn 1.0000 -0.0000 -0.0000
vn -0.0000 0.0000 -1.0000
# 6 vertex normals

vt 0.5742 0.0100 0.0000
vt 0.5742 0.5422 0.0000
vt 0.4358 0.5422 0.0000
vt 0.4358 0.3395 0.0000
vt 0.4358 0.1808 0.0000
vt 0.4358 0.0100 0.0000
vt 0.0100 0.7026 0.0000
vt 0.0100 0.5642 0.0000
vt 0.1808 0.5642 0.0000
vt 0.3395 0.5642 0.0000
vt 0.5422 0.5642 0.0000
vt 0.5422 0.7026 0.0000
vt 0.4256 0.1307 0.0000
vt 0.2872 0.1307 0.0000
vt 0.2872 0.0987 0.0000
vt 0.4256 0.0987 0.0000
vt 0.3724 0.3836 0.0000
vt 0.4043 0.3836 0.0000
vt 0.4043 0.5422 0.0000
vt 0.3724 0.5422 0.0000
vt 0.2938 0.5422 0.0000
vt 0.2938 0.4039 0.0000
vt 0.3258 0.4039 0.0000
vt 0.3258 0.5422 0.0000
vt 0.9900 0.8390 0.0000
vt 0.4578 0.8390 0.0000
vt 0.4578 0.8071 0.0000
vt 0.9900 0.8071 0.0000
vt 0.2228 0.1699 0.0000
vt 0.2228 0.1380 0.0000
vt 0.4256 0.1380 0.0000
vt 0.4256 0.1699 0.0000
vt 0.3650 0.5422 0.0000
vt 0.3331 0.5422 0.0000
vt 0.3331 0.3714 0.0000
vt 0.3650 0.3714 0.0000
vt 0.0100 0.3395 0.0000
vt 0.0100 0.1808 0.0000
vt 0.4578 0.7851 0.0000
vt 0.4578 0.7532 0.0000
vt 0.8836 0.7532 0.0000
vt 0.8836 0.7851 0.0000
vt 0.4358 0.7319 0.0000
vt 0.4358 0.8905 0.0000
vt 0.0100 0.8905 0.0000
vt 0.0100 0.7319 0.0000
vt 0.4358 0.9338 0.0000
vt 0.4358 0.9657 0.0000
vt 0.0100 0.9657 0.0000
vt 0.0100 0.9338 0.0000
vt 0.2155 0.1699 0.0000
vt 0.0569 0.1699 0.0000
vt 0.0569 0.1487 0.0000
vt 0.2155 0.1487 0.0000
vt 0.0100 0.9125 0.0000
vt 0.4358 0.9125 0.0000
vt 0.4256 0.3836 0.0000
vt 0.4256 0.5422 0.0000
vt 0.4578 0.7319 0.0000
vt 0.8836 0.7319 0.0000
# 60 texture coords

g JCwoshi_zhicheng
usemtl JCwoshi_zhicheng
s 2
f 33/97/13 34/98/13 35/99/13 
f 33/97/13 35/99/13 36/100/13 
f 33/97/13 36/100/13 37/101/13 
f 33/97/13 37/101/13 38/102/13 
s 4
f 39/103/14 40/104/14 41/105/14 
f 39/103/14 41/105/14 42/106/14 
f 39/103/14 42/106/14 43/107/14 
f 39/103/14 43/107/14 44/108/14 
s 8
f 33/109/15 38/110/15 40/111/15 
f 40/111/15 39/112/15 33/109/15 
s 16
f 45/113/16 46/114/16 47/115/16 
f 47/115/16 48/116/16 45/113/16 
s 32
f 35/117/17 34/118/17 44/119/17 
f 44/119/17 43/120/17 35/117/17 
s 64
f 34/121/18 33/122/18 39/123/18 
f 39/123/18 44/124/18 34/121/18 
s 16
f 35/125/16 43/126/16 42/127/16 
f 42/127/16 36/128/16 35/125/16 
f 40/129/16 38/130/16 37/131/16 
f 37/131/16 41/132/16 40/129/16 
s off
f 37/101/13 36/100/13 45/133/13 
f 45/133/13 48/134/13 37/101/13 
f 36/135/17 42/136/17 46/137/17 
f 46/137/17 45/138/17 36/135/17 
f 49/139/14 50/140/14 51/141/14 
f 51/141/14 52/142/14 49/139/14 
f 41/143/15 37/144/15 48/145/15 
f 48/145/15 47/146/15 41/143/15 
f 42/147/18 41/148/18 50/149/18 
f 50/149/18 49/150/18 42/147/18 
f 41/143/15 47/146/15 51/151/15 
f 51/151/15 50/152/15 41/143/15 
f 47/115/16 46/114/16 52/153/16 
f 52/153/16 51/154/16 47/115/16 
f 46/137/17 42/136/17 49/155/17 
f 49/155/17 52/156/17 46/137/17 
# 36 faces

