# 3ds Max Wavefront OBJ Exporter v0.97b - (c)2007 guruware
# 创建的文件:09.01.2018 19:14:18

mtllib men.mtl

#
# object STC1250_2_juanmen001
#

v  -14123.7637 1283.5444 24348.5898
v  -14573.7637 1283.5444 24348.4980
v  -14573.7637 1783.5446 24348.4980
v  -12623.7637 1283.5444 24348.8965
v  -11123.7637 1283.5444 24349.2051
v  -9623.7637 1283.5443 24349.5117
v  -14573.7637 2083.5444 24348.4980
v  -14573.7637 3683.5444 24348.4980
v  -9173.7637 3683.5444 24349.6035
v  -9173.7637 2083.5444 24349.6035
v  -9173.7637 1783.5444 24349.6035
v  -9173.7637 1283.5443 24349.6035
# 12 vertices

vn 0.0002 0.0000 -1.0000
# 1 vertex normals

vt 0.0917 0.4456 0.0000
vt 0.0100 0.4456 0.0000
vt 0.0100 0.3548 0.0000
vt 0.3639 0.4456 0.0000
vt 0.6361 0.4456 0.0000
vt 0.9083 0.4456 0.0000
vt 0.0100 0.3004 0.0000
vt 0.0100 0.0100 0.0000
vt 0.9900 0.0100 0.0000
vt 0.9900 0.3004 0.0000
vt 0.9900 0.3548 0.0000
vt 0.9900 0.4456 0.0000
# 12 texture coords

g STC1250_2_juanmen001
usemtl 620_juanmen
s off
f 1/1/1 2/2/1 3/3/1 
f 4/4/1 1/1/1 3/3/1 
f 5/5/1 4/4/1 3/3/1 
f 6/6/1 5/5/1 3/3/1 
f 7/7/1 8/8/1 9/9/1 
f 3/3/1 7/7/1 9/9/1 
f 6/6/1 3/3/1 9/9/1 
f 6/6/1 9/9/1 10/10/1 
f 6/6/1 10/10/1 11/11/1 
f 12/12/1 6/6/1 11/11/1 
# 10 faces

