# 3ds Max Wavefront OBJ Exporter v0.97b - (c)2007 guruware
# 创建的文件:14.05.2018 11:37:42

mtllib chang.mtl

#
# object waike
#

v  -65000.0000 0.0011 36678.0938
v  -65000.0000 -0.0019 -32200.0000
v  65000.0000 -0.0019 -32200.0000
v  65000.0000 0.0011 36678.0938
v  65000.0000 28000.0020 36678.0938
v  -65000.0000 28000.0020 36678.0938
v  65000.0000 27999.9980 -32200.0020
v  -65000.0000 27999.9980 -32200.0020
# 8 vertices

vn 0.0000 -1.0000 0.0000
vn 0.0000 0.0000 1.0000
vn 1.0000 0.0000 0.0000
vn 0.0000 -0.0000 -1.0000
vn -1.0000 0.0000 0.0000
vn 0.0000 1.0000 -0.0000
# 6 vertex normals

vt 0.9958 0.0029 0.0000
vt 0.9958 0.4944 0.0000
vt 0.5079 0.4944 0.0000
vt 0.5079 0.0029 0.0000
vt 0.2474 0.0024 0.0000
vt 0.2474 0.4979 0.0000
vt 0.0078 0.4979 0.0000
vt 0.0078 0.0024 0.0000
vt 0.9956 0.9903 0.0000
vt 0.5034 0.9903 0.0000
vt 0.5034 0.7503 0.0000
vt 0.9956 0.7503 0.0000
vt 0.2519 0.4984 0.0000
vt 0.2519 0.0015 0.0000
vt 0.4978 0.0015 0.0000
vt 0.4978 0.4984 0.0000
vt 0.9967 0.7464 0.0000
vt 0.5039 0.7464 0.0000
vt 0.5039 0.5021 0.0000
vt 0.9967 0.5021 0.0000
vt 0.0100 0.4997 0.0000
vt 0.5000 0.4997 0.0000
vt 0.5000 0.9933 0.0000
vt 0.0100 0.9933 0.0000
# 24 texture coords

g waike
usemtl diban
s 2
f 1/1/1 2/2/1 3/3/1 
f 3/3/1 4/4/1 1/1/1 
s 8
f 1/5/2 4/6/2 5/7/2 
f 5/7/2 6/8/2 1/5/2 
s 16
f 4/9/3 3/10/3 7/11/3 
f 7/11/3 5/12/3 4/9/3 
s 32
f 3/13/4 2/14/4 8/15/4 
f 8/15/4 7/16/4 3/13/4 
s 64
f 2/17/5 1/18/5 6/19/5 
f 6/19/5 8/20/5 2/17/5 
s off
f 7/21/6 8/22/6 6/23/6 
f 6/23/6 5/24/6 7/21/6 
# 12 faces

